<svg width="34" height="34" viewBox="0 0 34 34" fill="none" xmlns="http://www.w3.org/2000/svg">
<path fill-rule="evenodd" clip-rule="evenodd" d="M17.0264 33.9474C26.4007 33.9474 34.0001 26.348 34.0001 16.9737C34.0001 7.59938 26.4007 0 17.0264 0C7.65211 0 0.0527344 7.59938 0.0527344 16.9737C0.0527344 26.348 7.65211 33.9474 17.0264 33.9474ZM20.5965 7.94505H14.1768C11.1683 7.94505 8.72018 10.394 8.72018 13.4036V19.8232C8.72018 22.8318 11.1692 25.2799 14.1787 25.2799H20.5984C23.6069 25.2799 26.055 22.8309 26.055 19.8214V13.4017C26.055 10.3931 23.606 7.94505 20.5965 7.94505ZM10.6463 13.4036C10.6463 11.4563 12.2305 9.87114 14.1768 9.87114H20.5965C22.5438 9.87114 24.1289 11.4554 24.1289 13.4017V19.8214C24.1289 21.7686 22.5447 23.3538 20.5984 23.3538H14.1787C12.2314 23.3538 10.6463 21.7696 10.6463 19.8232V13.4036ZM22.5245 12.117C22.5245 11.7626 22.2375 11.4756 21.8831 11.4756C21.5287 11.4756 21.2398 11.7626 21.2398 12.117C21.2398 12.4714 21.5287 12.7603 21.8831 12.7603C22.2375 12.7603 22.5245 12.4714 22.5245 12.117ZM22.2028 16.6125C22.2028 13.9573 20.0427 11.7972 17.3876 11.7972C14.7325 11.7972 12.5724 13.9573 12.5724 16.6125C12.5724 19.2676 14.7325 21.4277 17.3876 21.4277C20.0427 21.4277 22.2028 19.2676 22.2028 16.6125ZM15.3447 14.5695C15.8865 14.0277 16.6214 13.7233 17.3876 13.7233C18.1538 13.7233 18.8887 14.0277 19.4305 14.5695C19.9723 15.1114 20.2767 15.8462 20.2767 16.6125C20.2767 17.3787 19.9723 18.1136 19.4305 18.6554C18.8887 19.1972 18.1538 19.5016 17.3876 19.5016C16.6214 19.5016 15.8865 19.1972 15.3447 18.6554C14.8028 18.1136 14.4985 17.3787 14.4985 16.6125C14.4985 15.8462 14.8028 15.1114 15.3447 14.5695Z" fill="#282750"/>
</svg>
