<svg width="35" height="34" viewBox="0 0 35 34" fill="none" xmlns="http://www.w3.org/2000/svg">
<path d="M17.5 0C7.83563 0 0 7.61175 0 17C0 26.3882 7.83563 34 17.5 34C27.1644 34 35 26.3882 35 17C35 7.61175 27.1644 0 17.5 0ZM10.9317 7.65425C12.1596 7.65425 12.9777 8.449 12.9777 9.50867C12.9777 10.5683 12.1596 11.3631 10.796 11.3631C9.56813 11.3645 8.75 10.5683 8.75 9.50867C8.75 8.449 9.56813 7.65425 10.9317 7.65425ZM13.125 24.0833H8.75V12.75H13.125V24.0833ZM27.7083 24.0833H23.59V17.8897C23.59 16.1769 22.4919 15.7817 22.0806 15.7817C21.6694 15.7817 20.2956 16.0452 20.2956 17.8897C20.2956 18.1532 20.2956 24.0833 20.2956 24.0833H16.0417V12.75H20.2971V14.331C20.8454 13.4087 21.9435 12.75 24.0027 12.75C26.0619 12.75 27.7083 14.331 27.7083 17.8897V24.0833Z" fill="#282750"/>
</svg>
